# xmcd CD database file generated by OrangeCD 6.2
#
# Track frame offsets:
#	150
#	24412
#	51617
#	72705
#	95527
#	118150
#	141342
#	163342
#	191252
#	218215
#	268442
#	285192
#
# Disc length: 4203 seconds
#
# Revision: 1
# Processed by: cddbd v1.5.2PL0 Copyright (c) Steve Scherf et al.
# Submitted via: OrangeCD 6.2
#
DISCID=c410690c
DTITLE=Cowboy Junkies - Waltz Across America - Recorded Live 1999-2000
DYEAR=2000
DGENRE=Country
TTITLE0=Good Friday
TTITLE1=Southern Rain
TTITLE2=Bea's Song (River Song Trilogy - Part II)
TTITLE3=Townes' Blues
TTITLE4=Five Room Love Story
TTITLE5=I Saw Your Shoes
TTITLE6=Misguided Angel
TTITLE7=Sweet Jane
TTITLE8=Hunted
TTITLE9=Blue Guitar
TTITLE10=Hollow As A Bone (Revisited)
TTITLE11=Dark Hole Again
EXTD=
EXTT0=
EXTT1=
EXTT2=
EXTT3=
EXTT4=
EXTT5=
EXTT6=
EXTT7=
EXTT8=
EXTT9=
EXTT10=
EXTT11=
PLAYORDER=
